<svg width="1001" height="496" viewBox="0 0 1001 496" fill="none" xmlns="http://www.w3.org/2000/svg">
<g opacity="0.29827">
<path d="M1008.08 163.448L443.182 -356.858V-747.19L28.1096 -770C24.9043 -762.456 4.36709 -740.714 7.57176 -728.596C11.43 -714.102 30.8387 -718.735 36.4776 -709.409C43.0661 -698.42 31.7291 -653.749 28.3457 -640.86C21.8759 -616.445 7.09676 -596.665 2.82235 -572.25C-4.35982 -531.263 10.1824 -534.53 37.7242 -508.927C84.141 -465.742 46.9244 -420.952 58.6176 -370.223C68.1146 -328.878 109.605 -307.554 124.8 -266.211C136.553 -234.37 152.697 -226.233 177.746 -202.947C177.153 -217.084 164.51 -258.785 188.253 -255.102C211.817 -251.478 202.736 -216.669 207.247 -202.115C211.045 -189.997 237.933 -165.761 215.616 -154.593C208.196 -150.91 187.066 -165.582 178.577 -169.503C184.572 -150.791 180.774 -131.367 190.271 -113.487C201.608 -92.162 213.835 -100.359 228.853 -88.7754C244.344 -76.8355 242.683 -63.1137 235.797 -45.0554C228.615 -26.2247 221.196 -29.1352 232.592 -6.44342C240.843 9.95119 254.85 30.7421 266.9 43.2164C273.904 50.4634 281.502 52.1267 288.506 61.3932C294.323 69.1155 292.067 79.2142 299.012 86.1638C310.883 98.1037 331.006 98.282 340.384 113.904C350.831 131.309 338.96 144.437 369.706 142.833C371.309 177.643 377.897 209.185 377.541 243.994C394.695 250.825 422.414 242.687 440.399 239.063C458.266 263.18 481.355 246.429 501.774 259.558C510.678 265.26 508.837 279.517 514.239 284.506C525.339 294.723 533.529 288.308 547.301 291.872C557.51 294.486 565.404 301.97 575.138 304.703C584.338 307.257 599.475 301.258 606.301 309.396C614.492 319.138 600.78 336.958 613.127 344.799C623.395 351.333 638.115 335.77 648.088 338.027C659.721 340.7 693.079 371.174 701.271 381.212C710.59 392.677 719.969 414.062 725.25 428.793C733.501 451.841 732.373 463.127 749.408 479.998C760.27 490.75 749.942 491.522 767.63 494.67C779.204 496.749 794.518 488.374 806.212 487.067C830.549 484.394 855.122 489.027 879.102 484.453C901.421 480.176 922.729 473.166 945.64 469.899C965.465 467.048 1000.37 469.246 1017.94 459.801C1036.99 449.643 1038.71 426.654 1011.17 430.932C1008.97 416.26 1018.77 396.003 1007.85 385.847C1023.04 365.056 1028.56 350.384 1030.93 324.959C1032 313.792 1032.48 301.436 1038 292.05C1043.4 282.783 1058.59 277.259 1061.56 269.299C1066.13 256.943 1058.83 251.419 1053.25 244.528C1049.69 240.073 1039.54 242.212 1036.63 238.291C1031.23 231.103 1036.57 223.678 1033.6 216.431C1024.94 195.462 1014.61 187.205 1008.08 163.444C1008.26 167.424 1008.44 171.463 1008.2 175.384" stroke="white" stroke-width="2" stroke-linecap="round" stroke-linejoin="round"/>
</g>
<path d="M729.114 81.5C720.546 104.881 740.614 113.086 756.675 128.368C761.434 132.896 761.888 140.378 756.879 144.903C746.107 154.634 705.264 140.477 707.854 153.306C710.53 166.555 745.061 185.092 746.618 186.36C760.284 197.492 764.735 225.735 757.208 241.219C751.852 252.237 716.342 248.523 705.172 244.854C632.024 220.826 664.985 223.692 582.817 216.23C576.527 215.659 569.935 215.367 563.894 217.211C557.671 219.11 557.869 226.899 559.957 231.111C566.876 245.067 597.849 268.738 589.514 287.083C586.956 292.712 580.963 296.268 578.264 301.83C576.151 306.188 576.385 311.332 575.445 316.083" stroke="white" stroke-width="2"/>
<path d="M532.903 468H530.871L526.391 458.64C526.455 459.376 526.503 460.059 526.535 460.688C526.578 461.307 526.599 462.059 526.599 462.944V468H525.175V456.976H527.159L531.687 466.352C531.655 466.075 531.613 465.589 531.559 464.896C531.506 464.203 531.479 463.568 531.479 462.992V456.976H532.903V468ZM539.185 459.376C540.369 459.376 541.286 459.771 541.937 460.56C542.598 461.349 542.929 462.421 542.929 463.776C542.929 464.651 542.78 465.424 542.481 466.096C542.182 466.757 541.75 467.275 541.185 467.648C540.62 468.011 539.948 468.192 539.169 468.192C537.985 468.192 537.062 467.797 536.401 467.008C535.74 466.219 535.409 465.147 535.409 463.792C535.409 462.917 535.558 462.149 535.857 461.488C536.156 460.816 536.588 460.299 537.153 459.936C537.718 459.563 538.396 459.376 539.185 459.376ZM539.185 460.56C537.724 460.56 536.993 461.637 536.993 463.792C536.993 465.936 537.718 467.008 539.169 467.008C540.62 467.008 541.345 465.931 541.345 463.776C541.345 461.632 540.625 460.56 539.185 460.56ZM549.025 459.376C549.324 459.376 549.601 459.408 549.857 459.472L549.585 460.912C549.329 460.848 549.084 460.816 548.849 460.816C548.326 460.816 547.905 461.008 547.585 461.392C547.265 461.776 547.014 462.373 546.833 463.184V468H545.361V459.568H546.625L546.769 461.28C546.993 460.651 547.297 460.176 547.681 459.856C548.065 459.536 548.513 459.376 549.025 459.376ZM555.789 467.616C555.234 468 554.605 468.192 553.901 468.192C553.186 468.192 552.626 467.989 552.221 467.584C551.826 467.168 551.629 466.571 551.629 465.792V460.704H550.157V459.568H551.629V457.664L553.101 457.488V459.568H555.101L554.941 460.704H553.101V465.728C553.101 466.165 553.175 466.485 553.325 466.688C553.485 466.88 553.746 466.976 554.109 466.976C554.439 466.976 554.813 466.864 555.229 466.64L555.789 467.616ZM561.282 459.376C562.05 459.376 562.647 459.605 563.074 460.064C563.511 460.523 563.73 461.152 563.73 461.952V468H562.258V462.16C562.258 461.563 562.141 461.141 561.906 460.896C561.682 460.651 561.351 460.528 560.914 460.528C560.477 460.528 560.087 460.656 559.746 460.912C559.405 461.168 559.085 461.531 558.786 462V468H557.314V456.192L558.786 456.032V460.736C559.447 459.829 560.279 459.376 561.282 459.376ZM573.723 456.784C574.459 456.784 575.089 456.891 575.611 457.104C576.134 457.307 576.641 457.627 577.131 458.064L576.299 458.992C575.883 458.661 575.473 458.421 575.067 458.272C574.673 458.112 574.246 458.032 573.787 458.032C573.211 458.032 572.737 458.165 572.363 458.432C571.99 458.699 571.803 459.088 571.803 459.6C571.803 459.92 571.867 460.192 571.995 460.416C572.123 460.629 572.358 460.827 572.699 461.008C573.051 461.189 573.558 461.381 574.219 461.584C574.913 461.797 575.489 462.027 575.947 462.272C576.406 462.517 576.774 462.859 577.051 463.296C577.339 463.723 577.483 464.267 577.483 464.928C577.483 465.568 577.323 466.133 577.003 466.624C576.694 467.115 576.241 467.499 575.643 467.776C575.057 468.053 574.358 468.192 573.547 468.192C572.022 468.192 570.774 467.717 569.803 466.768L570.635 465.84C571.083 466.203 571.537 466.48 571.995 466.672C572.454 466.853 572.966 466.944 573.531 466.944C574.214 466.944 574.779 466.779 575.227 466.448C575.675 466.107 575.899 465.616 575.899 464.976C575.899 464.613 575.83 464.315 575.691 464.08C575.553 463.835 575.313 463.616 574.971 463.424C574.641 463.232 574.155 463.04 573.515 462.848C572.385 462.507 571.558 462.096 571.035 461.616C570.513 461.136 570.251 460.485 570.251 459.664C570.251 459.109 570.395 458.613 570.683 458.176C570.982 457.739 571.393 457.397 571.915 457.152C572.449 456.907 573.051 456.784 573.723 456.784ZM583.61 459.376C584.378 459.376 584.975 459.605 585.402 460.064C585.839 460.523 586.058 461.152 586.058 461.952V468H584.586V462.16C584.586 461.563 584.469 461.141 584.234 460.896C584.01 460.651 583.679 460.528 583.242 460.528C582.805 460.528 582.415 460.656 582.074 460.912C581.733 461.168 581.413 461.531 581.114 462V468H579.642V456.192L581.114 456.032V460.736C581.775 459.829 582.607 459.376 583.61 459.376ZM592.185 459.376C593.369 459.376 594.286 459.771 594.937 460.56C595.598 461.349 595.929 462.421 595.929 463.776C595.929 464.651 595.78 465.424 595.481 466.096C595.182 466.757 594.75 467.275 594.185 467.648C593.62 468.011 592.948 468.192 592.169 468.192C590.985 468.192 590.062 467.797 589.401 467.008C588.74 466.219 588.409 465.147 588.409 463.792C588.409 462.917 588.558 462.149 588.857 461.488C589.156 460.816 589.588 460.299 590.153 459.936C590.718 459.563 591.396 459.376 592.185 459.376ZM592.185 460.56C590.724 460.56 589.993 461.637 589.993 463.792C589.993 465.936 590.718 467.008 592.169 467.008C593.62 467.008 594.345 465.931 594.345 463.776C594.345 461.632 593.625 460.56 592.185 460.56ZM602.025 459.376C602.324 459.376 602.601 459.408 602.857 459.472L602.585 460.912C602.329 460.848 602.084 460.816 601.849 460.816C601.326 460.816 600.905 461.008 600.585 461.392C600.265 461.776 600.014 462.373 599.833 463.184V468H598.361V459.568H599.625L599.769 461.28C599.993 460.651 600.297 460.176 600.681 459.856C601.065 459.536 601.513 459.376 602.025 459.376ZM610.416 463.536C610.416 463.781 610.406 464.032 610.384 464.288H605.008C605.072 465.216 605.307 465.899 605.712 466.336C606.118 466.773 606.64 466.992 607.28 466.992C607.686 466.992 608.059 466.933 608.4 466.816C608.742 466.699 609.099 466.512 609.472 466.256L610.112 467.136C609.216 467.84 608.235 468.192 607.168 468.192C605.995 468.192 605.078 467.808 604.416 467.04C603.766 466.272 603.44 465.216 603.44 463.872C603.44 462.997 603.579 462.224 603.856 461.552C604.144 460.869 604.55 460.336 605.072 459.952C605.606 459.568 606.23 459.376 606.944 459.376C608.064 459.376 608.923 459.744 609.52 460.48C610.118 461.216 610.416 462.235 610.416 463.536ZM608.96 463.104C608.96 462.272 608.795 461.637 608.464 461.2C608.134 460.763 607.638 460.544 606.976 460.544C605.771 460.544 605.115 461.429 605.008 463.2H608.96V463.104ZM618.954 455.184V469.568H618.602V455.184H618.954ZM637.781 468H636.309L635.925 463.024C635.765 461.072 635.675 459.573 635.653 458.528L633.269 466.752H631.845L629.333 458.512C629.333 459.845 629.264 461.387 629.125 463.136L628.757 468H627.317L628.229 456.976H630.277L632.597 464.992L634.805 456.976H636.869L637.781 468ZM645.978 466.032C645.978 466.373 646.037 466.629 646.154 466.8C646.272 466.96 646.448 467.083 646.682 467.168L646.346 468.192C645.909 468.139 645.557 468.016 645.29 467.824C645.024 467.632 644.826 467.333 644.698 466.928C644.133 467.771 643.296 468.192 642.186 468.192C641.354 468.192 640.698 467.957 640.218 467.488C639.738 467.019 639.498 466.405 639.498 465.648C639.498 464.752 639.818 464.064 640.458 463.584C641.109 463.104 642.026 462.864 643.21 462.864H644.506V462.24C644.506 461.643 644.362 461.216 644.074 460.96C643.786 460.704 643.344 460.576 642.746 460.576C642.128 460.576 641.37 460.725 640.474 461.024L640.106 459.952C641.152 459.568 642.122 459.376 643.018 459.376C644.01 459.376 644.752 459.621 645.242 460.112C645.733 460.592 645.978 461.28 645.978 462.176V466.032ZM642.522 467.088C643.365 467.088 644.026 466.651 644.506 465.776V463.84H643.402C641.845 463.84 641.066 464.416 641.066 465.568C641.066 466.069 641.189 466.448 641.434 466.704C641.68 466.96 642.042 467.088 642.522 467.088ZM650.525 468.192C649.981 468.192 649.549 468.032 649.229 467.712C648.92 467.381 648.765 466.923 648.765 466.336V456.176L650.237 456V466.304C650.237 466.539 650.275 466.709 650.349 466.816C650.435 466.923 650.573 466.976 650.765 466.976C650.968 466.976 651.149 466.944 651.309 466.88L651.693 467.904C651.341 468.096 650.952 468.192 650.525 468.192ZM655.005 459.568V468H653.533V459.568H655.005ZM654.253 455.52C654.562 455.52 654.813 455.616 655.005 455.808C655.197 456 655.293 456.24 655.293 456.528C655.293 456.816 655.197 457.056 655.005 457.248C654.813 457.429 654.562 457.52 654.253 457.52C653.954 457.52 653.709 457.429 653.517 457.248C653.325 457.056 653.229 456.816 653.229 456.528C653.229 456.24 653.325 456 653.517 455.808C653.709 455.616 653.954 455.52 654.253 455.52ZM661.904 459.376C662.864 459.376 663.627 459.765 664.192 460.544C664.758 461.312 665.04 462.389 665.04 463.776C665.04 464.651 664.907 465.424 664.64 466.096C664.374 466.757 663.99 467.275 663.488 467.648C662.987 468.011 662.4 468.192 661.728 468.192C660.843 468.192 660.096 467.819 659.488 467.072L659.344 468H658.048V456.176L659.52 456V460.624C660.128 459.792 660.923 459.376 661.904 459.376ZM661.376 467.024C662.027 467.024 662.534 466.763 662.896 466.24C663.27 465.707 663.456 464.885 663.456 463.776C663.456 462.635 663.286 461.813 662.944 461.312C662.603 460.8 662.118 460.544 661.488 460.544C660.742 460.544 660.086 460.981 659.52 461.856V465.888C659.744 466.24 660.016 466.517 660.336 466.72C660.667 466.923 661.014 467.024 661.376 467.024ZM673.82 468H672.556L672.444 466.688C672.124 467.211 671.756 467.595 671.34 467.84C670.924 468.075 670.418 468.192 669.82 468.192C669.084 468.192 668.508 467.968 668.092 467.52C667.676 467.072 667.468 466.437 667.468 465.616V459.568H668.94V465.456C668.94 466.032 669.042 466.443 669.244 466.688C669.447 466.923 669.778 467.04 670.236 467.04C671.058 467.04 671.762 466.555 672.348 465.584V459.568H673.82V468ZM677.245 465.968C677.565 465.968 677.832 466.075 678.045 466.288C678.258 466.501 678.365 466.763 678.365 467.072C678.365 467.403 678.269 467.781 678.077 468.208L677.005 470.656H675.949L676.589 468C676.45 467.893 676.338 467.76 676.253 467.6C676.178 467.44 676.141 467.264 676.141 467.072C676.141 466.763 676.248 466.501 676.461 466.288C676.674 466.075 676.936 465.968 677.245 465.968ZM688.875 456.784C689.536 456.784 690.091 456.869 690.539 457.04C690.998 457.211 691.462 457.488 691.931 457.872L691.099 458.848C690.427 458.304 689.718 458.032 688.971 458.032C688.054 458.032 687.312 458.384 686.747 459.088C686.192 459.792 685.915 460.923 685.915 462.48C685.915 463.995 686.192 465.115 686.747 465.84C687.302 466.555 688.038 466.912 688.955 466.912C689.424 466.912 689.835 466.832 690.187 466.672C690.539 466.512 690.912 466.288 691.307 466L692.059 466.96C691.718 467.312 691.28 467.605 690.747 467.84C690.214 468.075 689.6 468.192 688.907 468.192C688.011 468.192 687.211 467.973 686.507 467.536C685.814 467.088 685.27 466.437 684.875 465.584C684.491 464.72 684.299 463.685 684.299 462.48C684.299 461.275 684.502 460.245 684.907 459.392C685.312 458.528 685.862 457.877 686.555 457.44C687.248 457.003 688.022 456.784 688.875 456.784ZM699.844 468L699.012 465.232H694.836L694.004 468H692.468L696.004 456.976H697.924L701.444 468H699.844ZM695.204 464H698.644L696.932 458.24L695.204 464Z" fill="white"/>
<path d="M729.113 83.9394C720.544 107.321 740.612 115.526 756.673 130.807C761.433 135.336 830.53 178.431 825.52 182.957C840.318 210.369 800.638 242.04 797.095 250.306C800.558 293.424 854.638 265.193 847.273 293.424C836.227 309.789 825.409 307.761 806.38 305.891C782.434 301.559 756.208 290.786 747.92 301.559C733.45 320.367 869.512 358.174 849.739 386.598C835.686 406.798 746.134 347.485 725.548 367.477C718.829 374.003 722.049 377.189 725.548 381.126C732.298 388.723 762.7 389.705 764.59 416.966C764.59 446.523 785.548 441.099 783.568 459.768C781.847 475.991 726.488 463.904 725.548 468.655" stroke="white" stroke-width="2"/>
<path d="M468.906 363H466.874L462.394 353.64C462.458 354.376 462.506 355.059 462.538 355.688C462.581 356.307 462.602 357.059 462.602 357.944V363H461.178V351.976H463.162L467.69 361.352C467.658 361.075 467.615 360.589 467.562 359.896C467.509 359.203 467.482 358.568 467.482 357.992V351.976H468.906V363ZM475.188 354.376C476.372 354.376 477.289 354.771 477.94 355.56C478.601 356.349 478.932 357.421 478.932 358.776C478.932 359.651 478.783 360.424 478.484 361.096C478.185 361.757 477.753 362.275 477.188 362.648C476.623 363.011 475.951 363.192 475.172 363.192C473.988 363.192 473.065 362.797 472.404 362.008C471.743 361.219 471.412 360.147 471.412 358.792C471.412 357.917 471.561 357.149 471.86 356.488C472.159 355.816 472.591 355.299 473.156 354.936C473.721 354.563 474.399 354.376 475.188 354.376ZM475.188 355.56C473.727 355.56 472.996 356.637 472.996 358.792C472.996 360.936 473.721 362.008 475.172 362.008C476.623 362.008 477.348 360.931 477.348 358.776C477.348 356.632 476.628 355.56 475.188 355.56ZM485.028 354.376C485.326 354.376 485.604 354.408 485.86 354.472L485.588 355.912C485.332 355.848 485.086 355.816 484.852 355.816C484.329 355.816 483.908 356.008 483.588 356.392C483.268 356.776 483.017 357.373 482.836 358.184V363H481.364V354.568H482.628L482.772 356.28C482.996 355.651 483.3 355.176 483.684 354.856C484.068 354.536 484.516 354.376 485.028 354.376ZM491.792 362.616C491.237 363 490.608 363.192 489.904 363.192C489.189 363.192 488.629 362.989 488.224 362.584C487.829 362.168 487.632 361.571 487.632 360.792V355.704H486.16V354.568H487.632V352.664L489.104 352.488V354.568H491.104L490.944 355.704H489.104V360.728C489.104 361.165 489.178 361.485 489.328 361.688C489.488 361.88 489.749 361.976 490.112 361.976C490.442 361.976 490.816 361.864 491.232 361.64L491.792 362.616ZM497.285 354.376C498.053 354.376 498.65 354.605 499.077 355.064C499.514 355.523 499.733 356.152 499.733 356.952V363H498.261V357.16C498.261 356.563 498.144 356.141 497.909 355.896C497.685 355.651 497.354 355.528 496.917 355.528C496.48 355.528 496.09 355.656 495.749 355.912C495.408 356.168 495.088 356.531 494.789 357V363H493.317V351.192L494.789 351.032V355.736C495.45 354.829 496.282 354.376 497.285 354.376ZM509.726 351.784C510.462 351.784 511.092 351.891 511.614 352.104C512.137 352.307 512.644 352.627 513.134 353.064L512.302 353.992C511.886 353.661 511.476 353.421 511.07 353.272C510.676 353.112 510.249 353.032 509.79 353.032C509.214 353.032 508.74 353.165 508.366 353.432C507.993 353.699 507.806 354.088 507.806 354.6C507.806 354.92 507.87 355.192 507.998 355.416C508.126 355.629 508.361 355.827 508.702 356.008C509.054 356.189 509.561 356.381 510.222 356.584C510.916 356.797 511.492 357.027 511.95 357.272C512.409 357.517 512.777 357.859 513.054 358.296C513.342 358.723 513.486 359.267 513.486 359.928C513.486 360.568 513.326 361.133 513.006 361.624C512.697 362.115 512.244 362.499 511.646 362.776C511.06 363.053 510.361 363.192 509.55 363.192C508.025 363.192 506.777 362.717 505.806 361.768L506.638 360.84C507.086 361.203 507.54 361.48 507.998 361.672C508.457 361.853 508.969 361.944 509.534 361.944C510.217 361.944 510.782 361.779 511.23 361.448C511.678 361.107 511.902 360.616 511.902 359.976C511.902 359.613 511.833 359.315 511.694 359.08C511.556 358.835 511.316 358.616 510.974 358.424C510.644 358.232 510.158 358.04 509.518 357.848C508.388 357.507 507.561 357.096 507.038 356.616C506.516 356.136 506.254 355.485 506.254 354.664C506.254 354.109 506.398 353.613 506.686 353.176C506.985 352.739 507.396 352.397 507.918 352.152C508.452 351.907 509.054 351.784 509.726 351.784ZM519.613 354.376C520.381 354.376 520.978 354.605 521.405 355.064C521.842 355.523 522.061 356.152 522.061 356.952V363H520.589V357.16C520.589 356.563 520.472 356.141 520.237 355.896C520.013 355.651 519.682 355.528 519.245 355.528C518.808 355.528 518.418 355.656 518.077 355.912C517.736 356.168 517.416 356.531 517.117 357V363H515.645V351.192L517.117 351.032V355.736C517.778 354.829 518.61 354.376 519.613 354.376ZM528.188 354.376C529.372 354.376 530.289 354.771 530.94 355.56C531.601 356.349 531.932 357.421 531.932 358.776C531.932 359.651 531.783 360.424 531.484 361.096C531.185 361.757 530.753 362.275 530.188 362.648C529.623 363.011 528.951 363.192 528.172 363.192C526.988 363.192 526.065 362.797 525.404 362.008C524.743 361.219 524.412 360.147 524.412 358.792C524.412 357.917 524.561 357.149 524.86 356.488C525.159 355.816 525.591 355.299 526.156 354.936C526.721 354.563 527.399 354.376 528.188 354.376ZM528.188 355.56C526.727 355.56 525.996 356.637 525.996 358.792C525.996 360.936 526.721 362.008 528.172 362.008C529.623 362.008 530.348 360.931 530.348 358.776C530.348 356.632 529.628 355.56 528.188 355.56ZM538.028 354.376C538.326 354.376 538.604 354.408 538.86 354.472L538.588 355.912C538.332 355.848 538.086 355.816 537.852 355.816C537.329 355.816 536.908 356.008 536.588 356.392C536.268 356.776 536.017 357.373 535.836 358.184V363H534.364V354.568H535.628L535.772 356.28C535.996 355.651 536.3 355.176 536.684 354.856C537.068 354.536 537.516 354.376 538.028 354.376ZM546.419 358.536C546.419 358.781 546.409 359.032 546.387 359.288H541.011C541.075 360.216 541.31 360.899 541.715 361.336C542.121 361.773 542.643 361.992 543.283 361.992C543.689 361.992 544.062 361.933 544.403 361.816C544.745 361.699 545.102 361.512 545.475 361.256L546.115 362.136C545.219 362.84 544.238 363.192 543.171 363.192C541.998 363.192 541.081 362.808 540.419 362.04C539.769 361.272 539.443 360.216 539.443 358.872C539.443 357.997 539.582 357.224 539.859 356.552C540.147 355.869 540.553 355.336 541.075 354.952C541.609 354.568 542.233 354.376 542.947 354.376C544.067 354.376 544.926 354.744 545.523 355.48C546.121 356.216 546.419 357.235 546.419 358.536ZM544.963 358.104C544.963 357.272 544.798 356.637 544.467 356.2C544.137 355.763 543.641 355.544 542.979 355.544C541.774 355.544 541.118 356.429 541.011 358.2H544.963V358.104ZM554.956 350.184V364.568H554.604V350.184H554.956ZM573.784 363H572.312L571.928 358.024C571.768 356.072 571.677 354.573 571.656 353.528L569.272 361.752H567.848L565.336 353.512C565.336 354.845 565.267 356.387 565.128 358.136L564.76 363H563.32L564.232 351.976H566.28L568.6 359.992L570.808 351.976H572.872L573.784 363ZM581.981 361.032C581.981 361.373 582.04 361.629 582.157 361.8C582.275 361.96 582.451 362.083 582.685 362.168L582.349 363.192C581.912 363.139 581.56 363.016 581.293 362.824C581.027 362.632 580.829 362.333 580.701 361.928C580.136 362.771 579.299 363.192 578.189 363.192C577.357 363.192 576.701 362.957 576.221 362.488C575.741 362.019 575.501 361.405 575.501 360.648C575.501 359.752 575.821 359.064 576.461 358.584C577.112 358.104 578.029 357.864 579.213 357.864H580.509V357.24C580.509 356.643 580.365 356.216 580.077 355.96C579.789 355.704 579.347 355.576 578.749 355.576C578.131 355.576 577.373 355.725 576.477 356.024L576.109 354.952C577.155 354.568 578.125 354.376 579.021 354.376C580.013 354.376 580.755 354.621 581.245 355.112C581.736 355.592 581.981 356.28 581.981 357.176V361.032ZM578.525 362.088C579.368 362.088 580.029 361.651 580.509 360.776V358.84H579.405C577.848 358.84 577.069 359.416 577.069 360.568C577.069 361.069 577.192 361.448 577.437 361.704C577.683 361.96 578.045 362.088 578.525 362.088ZM586.528 363.192C585.984 363.192 585.552 363.032 585.232 362.712C584.923 362.381 584.768 361.923 584.768 361.336V351.176L586.24 351V361.304C586.24 361.539 586.277 361.709 586.352 361.816C586.437 361.923 586.576 361.976 586.768 361.976C586.971 361.976 587.152 361.944 587.312 361.88L587.696 362.904C587.344 363.096 586.955 363.192 586.528 363.192ZM591.008 354.568V363H589.536V354.568H591.008ZM590.256 350.52C590.565 350.52 590.816 350.616 591.008 350.808C591.2 351 591.296 351.24 591.296 351.528C591.296 351.816 591.2 352.056 591.008 352.248C590.816 352.429 590.565 352.52 590.256 352.52C589.957 352.52 589.712 352.429 589.52 352.248C589.328 352.056 589.232 351.816 589.232 351.528C589.232 351.24 589.328 351 589.52 350.808C589.712 350.616 589.957 350.52 590.256 350.52ZM597.907 354.376C598.867 354.376 599.63 354.765 600.195 355.544C600.761 356.312 601.043 357.389 601.043 358.776C601.043 359.651 600.91 360.424 600.643 361.096C600.377 361.757 599.993 362.275 599.491 362.648C598.99 363.011 598.403 363.192 597.731 363.192C596.846 363.192 596.099 362.819 595.491 362.072L595.347 363H594.051V351.176L595.523 351V355.624C596.131 354.792 596.926 354.376 597.907 354.376ZM597.379 362.024C598.03 362.024 598.537 361.763 598.899 361.24C599.273 360.707 599.459 359.885 599.459 358.776C599.459 357.635 599.289 356.813 598.947 356.312C598.606 355.8 598.121 355.544 597.491 355.544C596.745 355.544 596.089 355.981 595.523 356.856V360.888C595.747 361.24 596.019 361.517 596.339 361.72C596.67 361.923 597.017 362.024 597.379 362.024ZM609.823 363H608.559L608.447 361.688C608.127 362.211 607.759 362.595 607.343 362.84C606.927 363.075 606.421 363.192 605.823 363.192C605.087 363.192 604.511 362.968 604.095 362.52C603.679 362.072 603.471 361.437 603.471 360.616V354.568H604.943V360.456C604.943 361.032 605.045 361.443 605.247 361.688C605.45 361.923 605.781 362.04 606.239 362.04C607.061 362.04 607.765 361.555 608.351 360.584V354.568H609.823V363ZM613.248 360.968C613.568 360.968 613.834 361.075 614.048 361.288C614.261 361.501 614.368 361.763 614.368 362.072C614.368 362.403 614.272 362.781 614.08 363.208L613.008 365.656H611.952L612.592 363C612.453 362.893 612.341 362.76 612.256 362.6C612.181 362.44 612.144 362.264 612.144 362.072C612.144 361.763 612.25 361.501 612.464 361.288C612.677 361.075 612.938 360.968 613.248 360.968ZM624.878 351.784C625.539 351.784 626.094 351.869 626.542 352.04C627.001 352.211 627.465 352.488 627.934 352.872L627.102 353.848C626.43 353.304 625.721 353.032 624.974 353.032C624.057 353.032 623.315 353.384 622.75 354.088C622.195 354.792 621.918 355.923 621.918 357.48C621.918 358.995 622.195 360.115 622.75 360.84C623.305 361.555 624.041 361.912 624.958 361.912C625.427 361.912 625.838 361.832 626.19 361.672C626.542 361.512 626.915 361.288 627.31 361L628.062 361.96C627.721 362.312 627.283 362.605 626.75 362.84C626.217 363.075 625.603 363.192 624.91 363.192C624.014 363.192 623.214 362.973 622.51 362.536C621.817 362.088 621.273 361.437 620.878 360.584C620.494 359.72 620.302 358.685 620.302 357.48C620.302 356.275 620.505 355.245 620.91 354.392C621.315 353.528 621.865 352.877 622.558 352.44C623.251 352.003 624.025 351.784 624.878 351.784ZM635.847 363L635.015 360.232H630.839L630.007 363H628.471L632.007 351.976H633.927L637.447 363H635.847ZM631.207 359H634.647L632.935 353.24L631.207 359Z" fill="white"/>
<path d="M729.113 83.9394C720.545 107.321 740.613 115.526 756.674 130.807C761.433 135.336 761.887 142.817 756.878 147.342C746.105 157.074 705.262 142.917 707.853 155.745C710.529 168.994 745.06 187.531 746.616 188.799C760.283 199.932 764.734 228.174 757.207 243.658C751.851 254.676 730.444 275.181 717.305 280.374C696.822 285.75 687.41 278.867 661.828 265.639C649.537 259.283 626.303 262.481 626.303 278.867C626.303 288.233 629.285 294.302 630.856 299.33C632.862 305.748 634.64 304.652 643.197 317.755C648.812 324.841 648.731 324.343 650.814 327.269C655.282 333.544 661.79 356.298 660.85 361.049" stroke="white" stroke-width="2"/>
<path d="M181.853 212.976L181.677 214.192H177.405V217.792H181.117V219.008H177.405V222.784H181.981V224H175.885V212.976H181.853ZM189.86 222.032C189.86 222.373 189.919 222.629 190.036 222.8C190.153 222.96 190.329 223.083 190.564 223.168L190.228 224.192C189.791 224.139 189.439 224.016 189.172 223.824C188.905 223.632 188.708 223.333 188.58 222.928C188.015 223.771 187.177 224.192 186.068 224.192C185.236 224.192 184.58 223.957 184.1 223.488C183.62 223.019 183.38 222.405 183.38 221.648C183.38 220.752 183.7 220.064 184.34 219.584C184.991 219.104 185.908 218.864 187.092 218.864H188.388V218.24C188.388 217.643 188.244 217.216 187.956 216.96C187.668 216.704 187.225 216.576 186.628 216.576C186.009 216.576 185.252 216.725 184.356 217.024L183.988 215.952C185.033 215.568 186.004 215.376 186.9 215.376C187.892 215.376 188.633 215.621 189.124 216.112C189.615 216.592 189.86 217.28 189.86 218.176V222.032ZM186.404 223.088C187.247 223.088 187.908 222.651 188.388 221.776V219.84H187.284C185.727 219.84 184.948 220.416 184.948 221.568C184.948 222.069 185.071 222.448 185.316 222.704C185.561 222.96 185.924 223.088 186.404 223.088ZM195.015 215.376C195.591 215.376 196.108 215.456 196.567 215.616C197.026 215.776 197.463 216.016 197.879 216.336L197.255 217.264C196.871 217.019 196.503 216.837 196.151 216.72C195.81 216.603 195.447 216.544 195.063 216.544C194.583 216.544 194.204 216.645 193.927 216.848C193.65 217.04 193.511 217.307 193.511 217.648C193.511 217.989 193.639 218.256 193.895 218.448C194.162 218.64 194.636 218.827 195.319 219.008C196.258 219.243 196.956 219.563 197.415 219.968C197.884 220.373 198.119 220.928 198.119 221.632C198.119 222.464 197.794 223.099 197.143 223.536C196.503 223.973 195.719 224.192 194.791 224.192C193.511 224.192 192.45 223.824 191.607 223.088L192.391 222.192C193.106 222.736 193.895 223.008 194.759 223.008C195.314 223.008 195.751 222.896 196.071 222.672C196.402 222.437 196.567 222.123 196.567 221.728C196.567 221.44 196.508 221.211 196.391 221.04C196.274 220.859 196.071 220.704 195.783 220.576C195.495 220.437 195.074 220.293 194.519 220.144C193.623 219.909 192.972 219.595 192.567 219.2C192.172 218.805 191.975 218.304 191.975 217.696C191.975 217.259 192.103 216.864 192.359 216.512C192.626 216.149 192.988 215.872 193.447 215.68C193.916 215.477 194.439 215.376 195.015 215.376ZM204.452 223.616C203.897 224 203.268 224.192 202.564 224.192C201.849 224.192 201.289 223.989 200.884 223.584C200.489 223.168 200.292 222.571 200.292 221.792V216.704H198.82V215.568H200.292V213.664L201.764 213.488V215.568H203.764L203.604 216.704H201.764V221.728C201.764 222.165 201.838 222.485 201.988 222.688C202.148 222.88 202.409 222.976 202.772 222.976C203.102 222.976 203.476 222.864 203.892 222.64L204.452 223.616ZM213.011 212.784C213.747 212.784 214.377 212.891 214.899 213.104C215.422 213.307 215.929 213.627 216.419 214.064L215.587 214.992C215.171 214.661 214.761 214.421 214.355 214.272C213.961 214.112 213.534 214.032 213.075 214.032C212.499 214.032 212.025 214.165 211.651 214.432C211.278 214.699 211.091 215.088 211.091 215.6C211.091 215.92 211.155 216.192 211.283 216.416C211.411 216.629 211.646 216.827 211.987 217.008C212.339 217.189 212.846 217.381 213.507 217.584C214.201 217.797 214.777 218.027 215.235 218.272C215.694 218.517 216.062 218.859 216.339 219.296C216.627 219.723 216.771 220.267 216.771 220.928C216.771 221.568 216.611 222.133 216.291 222.624C215.982 223.115 215.529 223.499 214.931 223.776C214.345 224.053 213.646 224.192 212.835 224.192C211.31 224.192 210.062 223.717 209.091 222.768L209.923 221.84C210.371 222.203 210.825 222.48 211.283 222.672C211.742 222.853 212.254 222.944 212.819 222.944C213.502 222.944 214.067 222.779 214.515 222.448C214.963 222.107 215.187 221.616 215.187 220.976C215.187 220.613 215.118 220.315 214.979 220.08C214.841 219.835 214.601 219.616 214.259 219.424C213.929 219.232 213.443 219.04 212.803 218.848C211.673 218.507 210.846 218.096 210.323 217.616C209.801 217.136 209.539 216.485 209.539 215.664C209.539 215.109 209.683 214.613 209.971 214.176C210.27 213.739 210.681 213.397 211.203 213.152C211.737 212.907 212.339 212.784 213.011 212.784ZM222.898 215.376C223.666 215.376 224.263 215.605 224.69 216.064C225.127 216.523 225.346 217.152 225.346 217.952V224H223.874V218.16C223.874 217.563 223.757 217.141 223.522 216.896C223.298 216.651 222.967 216.528 222.53 216.528C222.093 216.528 221.703 216.656 221.362 216.912C221.021 217.168 220.701 217.531 220.402 218V224H218.93V212.192L220.402 212.032V216.736C221.063 215.829 221.895 215.376 222.898 215.376ZM231.473 215.376C232.657 215.376 233.574 215.771 234.225 216.56C234.886 217.349 235.217 218.421 235.217 219.776C235.217 220.651 235.068 221.424 234.769 222.096C234.47 222.757 234.038 223.275 233.473 223.648C232.908 224.011 232.236 224.192 231.457 224.192C230.273 224.192 229.35 223.797 228.689 223.008C228.028 222.219 227.697 221.147 227.697 219.792C227.697 218.917 227.846 218.149 228.145 217.488C228.444 216.816 228.876 216.299 229.441 215.936C230.006 215.563 230.684 215.376 231.473 215.376ZM231.473 216.56C230.012 216.56 229.281 217.637 229.281 219.792C229.281 221.936 230.006 223.008 231.457 223.008C232.908 223.008 233.633 221.931 233.633 219.776C233.633 217.632 232.913 216.56 231.473 216.56ZM241.313 215.376C241.611 215.376 241.889 215.408 242.145 215.472L241.873 216.912C241.617 216.848 241.371 216.816 241.137 216.816C240.614 216.816 240.193 217.008 239.873 217.392C239.553 217.776 239.302 218.373 239.121 219.184V224H237.649V215.568H238.913L239.057 217.28C239.281 216.651 239.585 216.176 239.969 215.856C240.353 215.536 240.801 215.376 241.313 215.376ZM249.704 219.536C249.704 219.781 249.694 220.032 249.672 220.288H244.296C244.36 221.216 244.595 221.899 245 222.336C245.406 222.773 245.928 222.992 246.568 222.992C246.974 222.992 247.347 222.933 247.688 222.816C248.03 222.699 248.387 222.512 248.76 222.256L249.4 223.136C248.504 223.84 247.523 224.192 246.456 224.192C245.283 224.192 244.366 223.808 243.704 223.04C243.054 222.272 242.728 221.216 242.728 219.872C242.728 218.997 242.867 218.224 243.144 217.552C243.432 216.869 243.838 216.336 244.36 215.952C244.894 215.568 245.518 215.376 246.232 215.376C247.352 215.376 248.211 215.744 248.808 216.48C249.406 217.216 249.704 218.235 249.704 219.536ZM248.248 219.104C248.248 218.272 248.083 217.637 247.752 217.2C247.422 216.763 246.926 216.544 246.264 216.544C245.059 216.544 244.403 217.429 244.296 219.2H248.248V219.104ZM258.241 211.184V225.568H257.889V211.184H258.241ZM277.069 224H275.597L275.213 219.024C275.053 217.072 274.963 215.573 274.941 214.528L272.557 222.752H271.133L268.621 214.512C268.621 215.845 268.552 217.387 268.413 219.136L268.045 224H266.605L267.517 212.976H269.565L271.885 220.992L274.093 212.976H276.157L277.069 224ZM285.266 222.032C285.266 222.373 285.325 222.629 285.442 222.8C285.56 222.96 285.736 223.083 285.97 223.168L285.634 224.192C285.197 224.139 284.845 224.016 284.578 223.824C284.312 223.632 284.114 223.333 283.986 222.928C283.421 223.771 282.584 224.192 281.474 224.192C280.642 224.192 279.986 223.957 279.506 223.488C279.026 223.019 278.786 222.405 278.786 221.648C278.786 220.752 279.106 220.064 279.746 219.584C280.397 219.104 281.314 218.864 282.498 218.864H283.794V218.24C283.794 217.643 283.65 217.216 283.362 216.96C283.074 216.704 282.632 216.576 282.034 216.576C281.416 216.576 280.658 216.725 279.762 217.024L279.394 215.952C280.44 215.568 281.41 215.376 282.306 215.376C283.298 215.376 284.04 215.621 284.53 216.112C285.021 216.592 285.266 217.28 285.266 218.176V222.032ZM281.81 223.088C282.653 223.088 283.314 222.651 283.794 221.776V219.84H282.69C281.133 219.84 280.354 220.416 280.354 221.568C280.354 222.069 280.477 222.448 280.722 222.704C280.968 222.96 281.33 223.088 281.81 223.088ZM289.813 224.192C289.269 224.192 288.837 224.032 288.517 223.712C288.208 223.381 288.053 222.923 288.053 222.336V212.176L289.525 212V222.304C289.525 222.539 289.563 222.709 289.637 222.816C289.723 222.923 289.861 222.976 290.053 222.976C290.256 222.976 290.437 222.944 290.597 222.88L290.981 223.904C290.629 224.096 290.24 224.192 289.813 224.192ZM294.293 215.568V224H292.821V215.568H294.293ZM293.541 211.52C293.85 211.52 294.101 211.616 294.293 211.808C294.485 212 294.581 212.24 294.581 212.528C294.581 212.816 294.485 213.056 294.293 213.248C294.101 213.429 293.85 213.52 293.541 213.52C293.242 213.52 292.997 213.429 292.805 213.248C292.613 213.056 292.517 212.816 292.517 212.528C292.517 212.24 292.613 212 292.805 211.808C292.997 211.616 293.242 211.52 293.541 211.52ZM301.192 215.376C302.152 215.376 302.915 215.765 303.48 216.544C304.046 217.312 304.328 218.389 304.328 219.776C304.328 220.651 304.195 221.424 303.928 222.096C303.662 222.757 303.278 223.275 302.776 223.648C302.275 224.011 301.688 224.192 301.016 224.192C300.131 224.192 299.384 223.819 298.776 223.072L298.632 224H297.336V212.176L298.808 212V216.624C299.416 215.792 300.211 215.376 301.192 215.376ZM300.664 223.024C301.315 223.024 301.822 222.763 302.184 222.24C302.558 221.707 302.744 220.885 302.744 219.776C302.744 218.635 302.574 217.813 302.232 217.312C301.891 216.8 301.406 216.544 300.776 216.544C300.03 216.544 299.374 216.981 298.808 217.856V221.888C299.032 222.24 299.304 222.517 299.624 222.72C299.955 222.923 300.302 223.024 300.664 223.024ZM313.108 224H311.844L311.732 222.688C311.412 223.211 311.044 223.595 310.628 223.84C310.212 224.075 309.706 224.192 309.108 224.192C308.372 224.192 307.796 223.968 307.38 223.52C306.964 223.072 306.756 222.437 306.756 221.616V215.568H308.228V221.456C308.228 222.032 308.33 222.443 308.532 222.688C308.735 222.923 309.066 223.04 309.524 223.04C310.346 223.04 311.05 222.555 311.636 221.584V215.568H313.108V224ZM316.533 221.968C316.853 221.968 317.119 222.075 317.333 222.288C317.546 222.501 317.653 222.763 317.653 223.072C317.653 223.403 317.557 223.781 317.365 224.208L316.293 226.656H315.237L315.877 224C315.738 223.893 315.626 223.76 315.541 223.6C315.466 223.44 315.429 223.264 315.429 223.072C315.429 222.763 315.535 222.501 315.749 222.288C315.962 222.075 316.223 221.968 316.533 221.968ZM328.163 212.784C328.824 212.784 329.379 212.869 329.827 213.04C330.286 213.211 330.75 213.488 331.219 213.872L330.387 214.848C329.715 214.304 329.006 214.032 328.259 214.032C327.342 214.032 326.6 214.384 326.035 215.088C325.48 215.792 325.203 216.923 325.203 218.48C325.203 219.995 325.48 221.115 326.035 221.84C326.59 222.555 327.326 222.912 328.243 222.912C328.712 222.912 329.123 222.832 329.475 222.672C329.827 222.512 330.2 222.288 330.595 222L331.347 222.96C331.006 223.312 330.568 223.605 330.035 223.84C329.502 224.075 328.888 224.192 328.195 224.192C327.299 224.192 326.499 223.973 325.795 223.536C325.102 223.088 324.558 222.437 324.163 221.584C323.779 220.72 323.587 219.685 323.587 218.48C323.587 217.275 323.79 216.245 324.195 215.392C324.6 214.528 325.15 213.877 325.843 213.44C326.536 213.003 327.31 212.784 328.163 212.784ZM339.132 224L338.3 221.232H334.124L333.292 224H331.756L335.292 212.976H337.212L340.732 224H339.132ZM334.492 220H337.932L336.22 214.24L334.492 220Z" fill="white"/>
<path d="M730.477 85.8518C700.159 97.8563 606.541 101.284 618.403 119.92C630.265 138.556 695.895 135.934 668.65 156.656C657.878 166.387 550.447 122.984 550.447 138.452C558.973 154.344 567.196 161.106 568.752 162.374C582.419 173.506 578.353 175.957 606.541 178.304C627.096 178.304 641.992 194.468 618.403 197.403C598.938 199.825 585.379 197.403 585.379 197.403C579.089 196.832 542.24 183.046 529.892 175.957C513.052 169.028 439.505 103.547 452.229 142.158C459.147 156.114 475.766 187.564 467.431 205.909C439.256 229.258 407.896 142.158 384.962 189.433C382.848 193.79 366.015 220.419 365.075 225.17" stroke="white" stroke-width="2"/>
<path fill-rule="evenodd" clip-rule="evenodd" d="M573.5 326C577.09 326 580 323.09 580 319.5C580 315.91 577.09 313 573.5 313C569.91 313 567 315.91 567 319.5C567 323.09 569.91 326 573.5 326Z" fill="#4AF6CD"/>
<path fill-rule="evenodd" clip-rule="evenodd" d="M661 363C662.657 363 664 361.657 664 360C664 358.343 662.657 357 661 357C659.343 357 658 358.343 658 360C658 361.657 659.343 363 661 363Z" fill="#4AF6CD"/>
<path fill-rule="evenodd" clip-rule="evenodd" d="M725 471C726.657 471 728 469.657 728 468C728 466.343 726.657 465 725 465C723.343 465 722 466.343 722 468C722 469.657 723.343 471 725 471Z" fill="#4AF6CD"/>
<path fill-rule="evenodd" clip-rule="evenodd" d="M365 228C366.657 228 368 226.657 368 225C368 223.343 366.657 222 365 222C363.343 222 362 223.343 362 225C362 226.657 363.343 228 365 228Z" fill="#4AF6CD"/>
<path fill-rule="evenodd" clip-rule="evenodd" d="M729.5 91C733.09 91 736 88.0899 736 84.5C736 80.9101 733.09 78 729.5 78C725.91 78 723 80.9101 723 84.5C723 88.0899 725.91 91 729.5 91Z" fill="#4AF6CD"/>
<path d="M398.41 310.976L396.17 322H394.218L392.186 312.768L390.138 322H388.234L385.994 310.976H387.482L389.258 320.672L391.386 310.976H393.002L395.178 320.672L397.018 310.976H398.41ZM406.544 317.536C406.544 317.781 406.534 318.032 406.512 318.288H401.136C401.2 319.216 401.435 319.899 401.84 320.336C402.246 320.773 402.768 320.992 403.408 320.992C403.814 320.992 404.187 320.933 404.528 320.816C404.87 320.699 405.227 320.512 405.6 320.256L406.24 321.136C405.344 321.84 404.363 322.192 403.296 322.192C402.123 322.192 401.206 321.808 400.544 321.04C399.894 320.272 399.568 319.216 399.568 317.872C399.568 316.997 399.707 316.224 399.984 315.552C400.272 314.869 400.678 314.336 401.2 313.952C401.734 313.568 402.358 313.376 403.072 313.376C404.192 313.376 405.051 313.744 405.648 314.48C406.246 315.216 406.544 316.235 406.544 317.536ZM405.088 317.104C405.088 316.272 404.923 315.637 404.592 315.2C404.262 314.763 403.766 314.544 403.104 314.544C401.899 314.544 401.243 315.429 401.136 317.2H405.088V317.104ZM411.183 313.376C411.759 313.376 412.276 313.456 412.735 313.616C413.194 313.776 413.631 314.016 414.047 314.336L413.423 315.264C413.039 315.019 412.671 314.837 412.319 314.72C411.978 314.603 411.615 314.544 411.231 314.544C410.751 314.544 410.372 314.645 410.095 314.848C409.818 315.04 409.679 315.307 409.679 315.648C409.679 315.989 409.807 316.256 410.063 316.448C410.33 316.64 410.804 316.827 411.487 317.008C412.426 317.243 413.124 317.563 413.583 317.968C414.052 318.373 414.287 318.928 414.287 319.632C414.287 320.464 413.962 321.099 413.311 321.536C412.671 321.973 411.887 322.192 410.959 322.192C409.679 322.192 408.618 321.824 407.775 321.088L408.559 320.192C409.274 320.736 410.063 321.008 410.927 321.008C411.482 321.008 411.919 320.896 412.239 320.672C412.57 320.437 412.735 320.123 412.735 319.728C412.735 319.44 412.676 319.211 412.559 319.04C412.442 318.859 412.239 318.704 411.951 318.576C411.663 318.437 411.242 318.293 410.687 318.144C409.791 317.909 409.14 317.595 408.735 317.2C408.34 316.805 408.143 316.304 408.143 315.696C408.143 315.259 408.271 314.864 408.527 314.512C408.794 314.149 409.156 313.872 409.615 313.68C410.084 313.477 410.607 313.376 411.183 313.376ZM420.62 321.616C420.065 322 419.436 322.192 418.732 322.192C418.017 322.192 417.457 321.989 417.052 321.584C416.657 321.168 416.46 320.571 416.46 319.792V314.704H414.988V313.568H416.46V311.664L417.932 311.488V313.568H419.932L419.772 314.704H417.932V319.728C417.932 320.165 418.006 320.485 418.156 320.688C418.316 320.88 418.577 320.976 418.94 320.976C419.27 320.976 419.644 320.864 420.06 320.64L420.62 321.616ZM429.179 310.784C429.915 310.784 430.545 310.891 431.067 311.104C431.59 311.307 432.097 311.627 432.587 312.064L431.755 312.992C431.339 312.661 430.929 312.421 430.523 312.272C430.129 312.112 429.702 312.032 429.243 312.032C428.667 312.032 428.193 312.165 427.819 312.432C427.446 312.699 427.259 313.088 427.259 313.6C427.259 313.92 427.323 314.192 427.451 314.416C427.579 314.629 427.814 314.827 428.155 315.008C428.507 315.189 429.014 315.381 429.675 315.584C430.369 315.797 430.945 316.027 431.403 316.272C431.862 316.517 432.23 316.859 432.507 317.296C432.795 317.723 432.939 318.267 432.939 318.928C432.939 319.568 432.779 320.133 432.459 320.624C432.15 321.115 431.697 321.499 431.099 321.776C430.513 322.053 429.814 322.192 429.003 322.192C427.478 322.192 426.23 321.717 425.259 320.768L426.091 319.84C426.539 320.203 426.993 320.48 427.451 320.672C427.91 320.853 428.422 320.944 428.987 320.944C429.67 320.944 430.235 320.779 430.683 320.448C431.131 320.107 431.355 319.616 431.355 318.976C431.355 318.613 431.286 318.315 431.147 318.08C431.009 317.835 430.769 317.616 430.427 317.424C430.097 317.232 429.611 317.04 428.971 316.848C427.841 316.507 427.014 316.096 426.491 315.616C425.969 315.136 425.707 314.485 425.707 313.664C425.707 313.109 425.851 312.613 426.139 312.176C426.438 311.739 426.849 311.397 427.371 311.152C427.905 310.907 428.507 310.784 429.179 310.784ZM439.066 313.376C439.834 313.376 440.431 313.605 440.858 314.064C441.295 314.523 441.514 315.152 441.514 315.952V322H440.042V316.16C440.042 315.563 439.925 315.141 439.69 314.896C439.466 314.651 439.135 314.528 438.698 314.528C438.261 314.528 437.871 314.656 437.53 314.912C437.189 315.168 436.869 315.531 436.57 316V322H435.098V310.192L436.57 310.032V314.736C437.231 313.829 438.063 313.376 439.066 313.376ZM447.641 313.376C448.825 313.376 449.742 313.771 450.393 314.56C451.054 315.349 451.385 316.421 451.385 317.776C451.385 318.651 451.236 319.424 450.937 320.096C450.638 320.757 450.206 321.275 449.641 321.648C449.076 322.011 448.404 322.192 447.625 322.192C446.441 322.192 445.518 321.797 444.857 321.008C444.196 320.219 443.865 319.147 443.865 317.792C443.865 316.917 444.014 316.149 444.313 315.488C444.612 314.816 445.044 314.299 445.609 313.936C446.174 313.563 446.852 313.376 447.641 313.376ZM447.641 314.56C446.18 314.56 445.449 315.637 445.449 317.792C445.449 319.936 446.174 321.008 447.625 321.008C449.076 321.008 449.801 319.931 449.801 317.776C449.801 315.632 449.081 314.56 447.641 314.56ZM457.481 313.376C457.78 313.376 458.057 313.408 458.313 313.472L458.041 314.912C457.785 314.848 457.54 314.816 457.305 314.816C456.782 314.816 456.361 315.008 456.041 315.392C455.721 315.776 455.47 316.373 455.289 317.184V322H453.817V313.568H455.081L455.225 315.28C455.449 314.651 455.753 314.176 456.137 313.856C456.521 313.536 456.969 313.376 457.481 313.376ZM465.872 317.536C465.872 317.781 465.862 318.032 465.84 318.288H460.464C460.528 319.216 460.763 319.899 461.168 320.336C461.574 320.773 462.096 320.992 462.736 320.992C463.142 320.992 463.515 320.933 463.856 320.816C464.198 320.699 464.555 320.512 464.928 320.256L465.568 321.136C464.672 321.84 463.691 322.192 462.624 322.192C461.451 322.192 460.534 321.808 459.872 321.04C459.222 320.272 458.896 319.216 458.896 317.872C458.896 316.997 459.035 316.224 459.312 315.552C459.6 314.869 460.006 314.336 460.528 313.952C461.062 313.568 461.686 313.376 462.4 313.376C463.52 313.376 464.379 313.744 464.976 314.48C465.574 315.216 465.872 316.235 465.872 317.536ZM464.416 317.104C464.416 316.272 464.251 315.637 463.92 315.2C463.59 314.763 463.094 314.544 462.432 314.544C461.227 314.544 460.571 315.429 460.464 317.2H464.416V317.104ZM474.41 309.184V323.568H474.058V309.184H474.41ZM493.237 322H491.765L491.381 317.024C491.221 315.072 491.131 313.573 491.109 312.528L488.725 320.752H487.301L484.789 312.512C484.789 313.845 484.72 315.387 484.581 317.136L484.213 322H482.773L483.685 310.976H485.733L488.053 318.992L490.261 310.976H492.325L493.237 322ZM501.434 320.032C501.434 320.373 501.493 320.629 501.61 320.8C501.728 320.96 501.904 321.083 502.138 321.168L501.802 322.192C501.365 322.139 501.013 322.016 500.746 321.824C500.48 321.632 500.282 321.333 500.154 320.928C499.589 321.771 498.752 322.192 497.642 322.192C496.81 322.192 496.154 321.957 495.674 321.488C495.194 321.019 494.954 320.405 494.954 319.648C494.954 318.752 495.274 318.064 495.914 317.584C496.565 317.104 497.482 316.864 498.666 316.864H499.962V316.24C499.962 315.643 499.818 315.216 499.53 314.96C499.242 314.704 498.8 314.576 498.202 314.576C497.584 314.576 496.826 314.725 495.93 315.024L495.562 313.952C496.608 313.568 497.578 313.376 498.474 313.376C499.466 313.376 500.208 313.621 500.698 314.112C501.189 314.592 501.434 315.28 501.434 316.176V320.032ZM497.978 321.088C498.821 321.088 499.482 320.651 499.962 319.776V317.84H498.858C497.301 317.84 496.522 318.416 496.522 319.568C496.522 320.069 496.645 320.448 496.89 320.704C497.136 320.96 497.498 321.088 497.978 321.088ZM505.981 322.192C505.437 322.192 505.005 322.032 504.685 321.712C504.376 321.381 504.221 320.923 504.221 320.336V310.176L505.693 310V320.304C505.693 320.539 505.731 320.709 505.805 320.816C505.891 320.923 506.029 320.976 506.221 320.976C506.424 320.976 506.605 320.944 506.765 320.88L507.149 321.904C506.797 322.096 506.408 322.192 505.981 322.192ZM510.461 313.568V322H508.989V313.568H510.461ZM509.709 309.52C510.018 309.52 510.269 309.616 510.461 309.808C510.653 310 510.749 310.24 510.749 310.528C510.749 310.816 510.653 311.056 510.461 311.248C510.269 311.429 510.018 311.52 509.709 311.52C509.41 311.52 509.165 311.429 508.973 311.248C508.781 311.056 508.685 310.816 508.685 310.528C508.685 310.24 508.781 310 508.973 309.808C509.165 309.616 509.41 309.52 509.709 309.52ZM517.36 313.376C518.32 313.376 519.083 313.765 519.648 314.544C520.214 315.312 520.496 316.389 520.496 317.776C520.496 318.651 520.363 319.424 520.096 320.096C519.83 320.757 519.446 321.275 518.944 321.648C518.443 322.011 517.856 322.192 517.184 322.192C516.299 322.192 515.552 321.819 514.944 321.072L514.8 322H513.504V310.176L514.976 310V314.624C515.584 313.792 516.379 313.376 517.36 313.376ZM516.832 321.024C517.483 321.024 517.99 320.763 518.352 320.24C518.726 319.707 518.912 318.885 518.912 317.776C518.912 316.635 518.742 315.813 518.4 315.312C518.059 314.8 517.574 314.544 516.944 314.544C516.198 314.544 515.542 314.981 514.976 315.856V319.888C515.2 320.24 515.472 320.517 515.792 320.72C516.123 320.923 516.47 321.024 516.832 321.024ZM529.276 322H528.012L527.9 320.688C527.58 321.211 527.212 321.595 526.796 321.84C526.38 322.075 525.874 322.192 525.276 322.192C524.54 322.192 523.964 321.968 523.548 321.52C523.132 321.072 522.924 320.437 522.924 319.616V313.568H524.396V319.456C524.396 320.032 524.498 320.443 524.7 320.688C524.903 320.923 525.234 321.04 525.692 321.04C526.514 321.04 527.218 320.555 527.804 319.584V313.568H529.276V322ZM532.701 319.968C533.021 319.968 533.288 320.075 533.501 320.288C533.714 320.501 533.821 320.763 533.821 321.072C533.821 321.403 533.725 321.781 533.533 322.208L532.461 324.656H531.405L532.045 322C531.906 321.893 531.794 321.76 531.709 321.6C531.634 321.44 531.597 321.264 531.597 321.072C531.597 320.763 531.704 320.501 531.917 320.288C532.13 320.075 532.392 319.968 532.701 319.968ZM544.331 310.784C544.992 310.784 545.547 310.869 545.995 311.04C546.454 311.211 546.918 311.488 547.387 311.872L546.555 312.848C545.883 312.304 545.174 312.032 544.427 312.032C543.51 312.032 542.768 312.384 542.203 313.088C541.648 313.792 541.371 314.923 541.371 316.48C541.371 317.995 541.648 319.115 542.203 319.84C542.758 320.555 543.494 320.912 544.411 320.912C544.88 320.912 545.291 320.832 545.643 320.672C545.995 320.512 546.368 320.288 546.763 320L547.515 320.96C547.174 321.312 546.736 321.605 546.203 321.84C545.67 322.075 545.056 322.192 544.363 322.192C543.467 322.192 542.667 321.973 541.963 321.536C541.27 321.088 540.726 320.437 540.331 319.584C539.947 318.72 539.755 317.685 539.755 316.48C539.755 315.275 539.958 314.245 540.363 313.392C540.768 312.528 541.318 311.877 542.011 311.44C542.704 311.003 543.478 310.784 544.331 310.784ZM555.3 322L554.468 319.232H550.292L549.46 322H547.924L551.46 310.976H553.38L556.9 322H555.3ZM550.66 318H554.1L552.388 312.24L550.66 318Z" fill="white"/>
<path d="M598.378 75.784C599.039 75.784 599.594 75.8693 600.042 76.04C600.501 76.2107 600.965 76.488 601.434 76.872L600.602 77.848C599.93 77.304 599.221 77.032 598.474 77.032C597.557 77.032 596.815 77.384 596.25 78.088C595.695 78.792 595.418 79.9227 595.418 81.48C595.418 82.9947 595.695 84.1147 596.25 84.84C596.805 85.5547 597.541 85.912 598.458 85.912C598.927 85.912 599.338 85.832 599.69 85.672C600.042 85.512 600.415 85.288 600.81 85L601.562 85.96C601.221 86.312 600.783 86.6053 600.25 86.84C599.717 87.0747 599.103 87.192 598.41 87.192C597.514 87.192 596.714 86.9733 596.01 86.536C595.317 86.088 594.773 85.4373 594.378 84.584C593.994 83.72 593.802 82.6853 593.802 81.48C593.802 80.2747 594.005 79.2453 594.41 78.392C594.815 77.528 595.365 76.8773 596.058 76.44C596.751 76.0027 597.525 75.784 598.378 75.784ZM609.401 87H608.137L608.025 85.688C607.705 86.2107 607.337 86.5947 606.921 86.84C606.505 87.0747 605.999 87.192 605.401 87.192C604.665 87.192 604.089 86.968 603.673 86.52C603.257 86.072 603.049 85.4373 603.049 84.616V78.568H604.521V84.456C604.521 85.032 604.623 85.4427 604.825 85.688C605.028 85.9227 605.359 86.04 605.817 86.04C606.639 86.04 607.343 85.5547 607.929 84.584V78.568H609.401V87ZM616.106 78.376C616.405 78.376 616.682 78.408 616.938 78.472L616.666 79.912C616.41 79.848 616.165 79.816 615.93 79.816C615.407 79.816 614.986 80.008 614.666 80.392C614.346 80.776 614.095 81.3733 613.914 82.184V87H612.442V78.568H613.706L613.85 80.28C614.074 79.6507 614.378 79.176 614.762 78.856C615.146 78.536 615.594 78.376 616.106 78.376ZM622.278 78.376C622.576 78.376 622.854 78.408 623.11 78.472L622.838 79.912C622.582 79.848 622.336 79.816 622.102 79.816C621.579 79.816 621.158 80.008 620.838 80.392C620.518 80.776 620.267 81.3733 620.086 82.184V87H618.614V78.568H619.878L620.022 80.28C620.246 79.6507 620.55 79.176 620.934 78.856C621.318 78.536 621.766 78.376 622.278 78.376ZM630.669 82.536C630.669 82.7813 630.659 83.032 630.637 83.288H625.261C625.325 84.216 625.56 84.8987 625.965 85.336C626.371 85.7733 626.893 85.992 627.533 85.992C627.939 85.992 628.312 85.9333 628.653 85.816C628.995 85.6987 629.352 85.512 629.725 85.256L630.365 86.136C629.469 86.84 628.488 87.192 627.421 87.192C626.248 87.192 625.331 86.808 624.669 86.04C624.019 85.272 623.693 84.216 623.693 82.872C623.693 81.9973 623.832 81.224 624.109 80.552C624.397 79.8693 624.803 79.336 625.325 78.952C625.859 78.568 626.483 78.376 627.197 78.376C628.317 78.376 629.176 78.744 629.773 79.48C630.371 80.216 630.669 81.2347 630.669 82.536ZM629.213 82.104C629.213 81.272 629.048 80.6373 628.717 80.2C628.387 79.7627 627.891 79.544 627.229 79.544C626.024 79.544 625.368 80.4293 625.261 82.2H629.213V82.104ZM636.988 78.376C637.756 78.376 638.353 78.6053 638.78 79.064C639.217 79.5227 639.436 80.152 639.436 80.952V87H637.964V81.16C637.964 80.5627 637.852 80.1413 637.628 79.896C637.404 79.6507 637.073 79.528 636.636 79.528C636.188 79.528 635.793 79.656 635.452 79.912C635.111 80.168 634.791 80.536 634.492 81.016V87H633.02V78.568H634.284L634.412 79.816C634.711 79.368 635.079 79.016 635.516 78.76C635.964 78.504 636.455 78.376 636.988 78.376ZM646.651 86.616C646.096 87 645.467 87.192 644.763 87.192C644.048 87.192 643.488 86.9893 643.083 86.584C642.688 86.168 642.491 85.5707 642.491 84.792V79.704H641.019V78.568H642.491V76.664L643.963 76.488V78.568H645.963L645.803 79.704H643.963V84.728C643.963 85.1653 644.038 85.4853 644.187 85.688C644.347 85.88 644.608 85.976 644.971 85.976C645.302 85.976 645.675 85.864 646.091 85.64L646.651 86.616ZM654.011 75.976V85.672H658.539L658.363 87H652.491V75.976H654.011ZM663.141 78.376C664.325 78.376 665.242 78.7707 665.893 79.56C666.554 80.3493 666.885 81.4213 666.885 82.776C666.885 83.6507 666.736 84.424 666.437 85.096C666.138 85.7573 665.706 86.2747 665.141 86.648C664.576 87.0107 663.904 87.192 663.125 87.192C661.941 87.192 661.018 86.7973 660.357 86.008C659.696 85.2187 659.365 84.1467 659.365 82.792C659.365 81.9173 659.514 81.1493 659.813 80.488C660.112 79.816 660.544 79.2987 661.109 78.936C661.674 78.5627 662.352 78.376 663.141 78.376ZM663.141 79.56C661.68 79.56 660.949 80.6373 660.949 82.792C660.949 84.936 661.674 86.008 663.125 86.008C664.576 86.008 665.301 84.9307 665.301 82.776C665.301 80.632 664.581 79.56 663.141 79.56ZM672.389 78.376C672.89 78.376 673.349 78.4507 673.765 78.6C674.181 78.7387 674.581 78.968 674.965 79.288L674.261 80.216C673.962 80.0027 673.669 79.848 673.381 79.752C673.104 79.6453 672.794 79.592 672.453 79.592C671.77 79.592 671.237 79.864 670.853 80.408C670.48 80.952 670.293 81.7573 670.293 82.824C670.293 83.8907 670.48 84.68 670.853 85.192C671.226 85.6933 671.76 85.944 672.453 85.944C672.784 85.944 673.088 85.896 673.365 85.8C673.642 85.6933 673.952 85.528 674.293 85.304L674.965 86.264C674.197 86.8827 673.338 87.192 672.389 87.192C671.248 87.192 670.346 86.808 669.685 86.04C669.034 85.272 668.709 84.2107 668.709 82.856C668.709 81.96 668.858 81.176 669.157 80.504C669.456 79.832 669.877 79.3093 670.421 78.936C670.976 78.5627 671.632 78.376 672.389 78.376ZM682.481 85.032C682.481 85.3733 682.54 85.6293 682.657 85.8C682.775 85.96 682.951 86.0827 683.185 86.168L682.849 87.192C682.412 87.1387 682.06 87.016 681.793 86.824C681.527 86.632 681.329 86.3333 681.201 85.928C680.636 86.7707 679.799 87.192 678.689 87.192C677.857 87.192 677.201 86.9573 676.721 86.488C676.241 86.0187 676.001 85.4053 676.001 84.648C676.001 83.752 676.321 83.064 676.961 82.584C677.612 82.104 678.529 81.864 679.713 81.864H681.009V81.24C681.009 80.6427 680.865 80.216 680.577 79.96C680.289 79.704 679.847 79.576 679.249 79.576C678.631 79.576 677.873 79.7253 676.977 80.024L676.609 78.952C677.655 78.568 678.625 78.376 679.521 78.376C680.513 78.376 681.255 78.6213 681.745 79.112C682.236 79.592 682.481 80.28 682.481 81.176V85.032ZM679.025 86.088C679.868 86.088 680.529 85.6507 681.009 84.776V82.84H679.905C678.348 82.84 677.569 83.416 677.569 84.568C677.569 85.0693 677.692 85.448 677.937 85.704C678.183 85.96 678.545 86.088 679.025 86.088ZM689.76 86.616C689.206 87 688.576 87.192 687.872 87.192C687.158 87.192 686.598 86.9893 686.192 86.584C685.798 86.168 685.6 85.5707 685.6 84.792V79.704H684.128V78.568H685.6V76.664L687.072 76.488V78.568H689.072L688.912 79.704H687.072V84.728C687.072 85.1653 687.147 85.4853 687.296 85.688C687.456 85.88 687.718 85.976 688.08 85.976C688.411 85.976 688.784 85.864 689.2 85.64L689.76 86.616ZM692.758 78.568V87H691.286V78.568H692.758ZM692.006 74.52C692.315 74.52 692.566 74.616 692.758 74.808C692.95 75 693.046 75.24 693.046 75.528C693.046 75.816 692.95 76.056 692.758 76.248C692.566 76.4293 692.315 76.52 692.006 76.52C691.707 76.52 691.462 76.4293 691.27 76.248C691.078 76.056 690.982 75.816 690.982 75.528C690.982 75.24 691.078 75 691.27 74.808C691.462 74.616 691.707 74.52 692.006 74.52ZM698.969 78.376C700.153 78.376 701.071 78.7707 701.721 79.56C702.383 80.3493 702.713 81.4213 702.713 82.776C702.713 83.6507 702.564 84.424 702.265 85.096C701.967 85.7573 701.535 86.2747 700.969 86.648C700.404 87.0107 699.732 87.192 698.953 87.192C697.769 87.192 696.847 86.7973 696.185 86.008C695.524 85.2187 695.193 84.1467 695.193 82.792C695.193 81.9173 695.343 81.1493 695.641 80.488C695.94 79.816 696.372 79.2987 696.937 78.936C697.503 78.5627 698.18 78.376 698.969 78.376ZM698.969 79.56C697.508 79.56 696.777 80.6373 696.777 82.792C696.777 84.936 697.503 86.008 698.953 86.008C700.404 86.008 701.129 84.9307 701.129 82.776C701.129 80.632 700.409 79.56 698.969 79.56ZM709.113 78.376C709.881 78.376 710.478 78.6053 710.905 79.064C711.342 79.5227 711.561 80.152 711.561 80.952V87H710.089V81.16C710.089 80.5627 709.977 80.1413 709.753 79.896C709.529 79.6507 709.198 79.528 708.761 79.528C708.313 79.528 707.918 79.656 707.577 79.912C707.236 80.168 706.916 80.536 706.617 81.016V87H705.145V78.568H706.409L706.537 79.816C706.836 79.368 707.204 79.016 707.641 78.76C708.089 78.504 708.58 78.376 709.113 78.376Z" fill="white"/>
</svg>
